<svg width="24" height="24" viewBox="0 0 24 24" fill="none" xmlns="http://www.w3.org/2000/svg">
<path d="M18.3 5.70011C17.9134 5.31351 17.2866 5.31351 16.9 5.70011L12 10.6001L7.1 5.70011C6.7134 5.31351 6.0866 5.31351 5.7 5.70011C5.3134 6.08671 5.3134 6.71351 5.7 7.10011L10.6 12.0001L5.7 16.9001C5.3134 17.2867 5.3134 17.9135 5.7 18.3001C6.0866 18.6867 6.7134 18.6867 7.1 18.3001L12 13.4001L16.9 18.3001C17.2866 18.6867 17.9134 18.6867 18.3 18.3001C18.6866 17.9135 18.6866 17.2867 18.3 16.9001L13.4 12.0001L18.3 7.10011C18.6866 6.71351 18.6866 6.08671 18.3 5.70011Z" fill="#808DA8"/>
</svg>
