<svg width="24" height="24" viewBox="0 0 24 24" fill="none" xmlns="http://www.w3.org/2000/svg">
<path d="M24 17.9999C24 18.7071 23.7191 19.3854 23.2189 19.8855C22.7188 20.3857 22.0405 20.6666 21.3333 20.6666H2.66667C1.95943 20.6666 1.28115 20.3857 0.781048 19.8855C0.280952 19.3854 0 18.7071 0 17.9999V5.99992C0 5.29268 0.280952 4.6144 0.781048 4.11431C1.28115 3.6142 1.95943 3.33325 2.66667 3.33325H21.3333C22.0405 3.33325 22.7188 3.6142 23.2189 4.11431C23.7191 4.6144 24 5.29268 24 5.99992V17.9999Z" fill="#E8112D"/>
<path d="M12.3151 7.99061C12.3244 7.29395 12.9417 6.81461 12.9677 5.88661C13.4097 6.44261 12.6791 7.48461 12.9384 8.08928C13.0571 7.40328 13.7404 7.02595 13.9124 6.11395C14.2624 6.73261 13.377 7.64728 13.5384 8.28461C13.7624 7.62461 14.497 7.35995 14.809 6.48528C15.0577 7.15128 14.041 7.91595 14.101 8.57061C14.425 7.95461 15.1924 7.80795 15.6377 6.99261C15.7797 7.68928 14.6544 8.28528 14.6117 8.94195C15.0284 8.38395 15.8097 8.35861 16.3764 7.62328C16.4077 8.33395 15.203 8.74595 15.0584 9.38795C15.557 8.90195 16.3317 8.99928 17.0064 8.36128C16.927 9.06795 15.673 9.28728 15.4284 9.89861C15.9977 9.49661 16.7484 9.71395 17.5144 9.18995C17.3257 9.87528 16.0524 9.89595 15.7164 10.4613C16.3404 10.1533 17.047 10.4853 17.887 10.0873C17.593 10.7339 16.331 10.5553 15.9104 11.0613C16.5757 10.8546 17.223 11.2939 18.1137 11.0319C17.7204 11.6253 16.5044 11.2506 16.0097 11.6846C16.6984 11.5846 17.269 12.1186 18.189 11.9999C17.7097 12.5246 16.5657 11.9646 16.0097 12.3153C16.7064 12.3246 17.1857 12.9426 18.1124 12.9673C17.5564 13.4113 16.515 12.6779 15.9104 12.9386C16.5977 13.0573 16.9744 13.7406 17.887 13.9126C17.2684 14.2626 16.353 13.3773 15.715 13.5386C16.375 13.7626 16.641 14.4973 17.5144 14.8093C16.849 15.0593 16.085 14.0413 15.4284 14.1013C16.0457 14.4253 16.193 15.1926 17.0064 15.638C16.3097 15.78 15.7144 14.6546 15.057 14.612C15.6157 15.0286 15.6404 15.81 16.3764 16.3766C15.6664 16.408 15.2524 15.2033 14.6117 15.0586C15.0977 15.5573 14.9997 16.332 15.6377 17.0066C14.9304 16.9273 14.7117 15.6733 14.101 15.4286C14.5024 15.998 14.2844 16.7486 14.809 17.5146C14.123 17.326 14.103 16.0526 13.5384 15.7166C13.847 16.3406 13.5137 17.0473 13.9124 17.8873C13.2651 17.5933 13.4437 16.3313 12.9384 15.9106C13.1444 16.576 12.7064 17.2233 12.9677 18.114C12.3744 17.7206 12.7491 16.5046 12.3151 16.01C12.4151 16.6986 11.8811 17.2693 11.9997 18.1893C11.4751 17.71 12.0351 16.566 11.6844 16.01C11.6751 16.7066 11.0577 17.186 11.0317 18.1126C10.5884 17.558 11.3204 16.5153 11.0604 15.9106C10.9424 16.598 10.2584 16.9746 10.0871 17.8873C9.73707 17.2686 10.6224 16.3533 10.4604 15.7166C10.2364 16.3753 9.50173 16.6413 9.18973 17.5146C8.9404 16.8493 9.9584 16.0853 9.8984 15.4286C9.57373 16.046 8.8064 16.1933 8.36173 17.0066C8.21973 16.31 9.34507 15.7146 9.38773 15.0586C8.97107 15.616 8.1904 15.6406 7.62373 16.3766C7.59173 15.6666 8.79707 15.2526 8.94173 14.612C8.44307 15.098 7.66773 15 6.99307 15.638C7.07307 14.9306 8.32773 14.712 8.57107 14.1013C8.0024 14.5026 7.25173 14.2846 6.48573 14.8093C6.67507 14.1233 7.9484 14.1033 8.2844 13.5386C7.65973 13.8473 6.95307 13.5153 6.11373 13.9126C6.4084 13.2653 7.66907 13.444 8.08973 12.9386C7.4244 13.1446 6.7784 12.7066 5.88707 12.9673C6.27907 12.3753 7.4964 12.7486 7.9904 12.3153C7.30107 12.4153 6.73173 11.8806 5.81107 11.9999C6.29107 11.4759 7.4344 12.0353 7.9904 11.6846C7.2944 11.6753 6.81507 11.0579 5.88707 11.0319C6.44307 10.5886 7.48507 11.3206 8.08973 11.0606C7.40307 10.9426 7.0264 10.2586 6.1144 10.0873C6.73307 9.73661 7.64773 10.6226 8.28507 10.4606C7.62507 10.2366 7.3604 9.50195 6.48573 9.18995C7.15173 8.94061 7.9164 9.95861 8.57107 9.89861C7.9544 9.57395 7.8084 8.80661 6.99307 8.36195C7.68973 8.21995 8.28573 9.34528 8.9424 9.38795C8.3844 8.97128 8.35907 8.19061 7.62373 7.62395C8.33373 7.59261 8.7464 8.79728 9.3884 8.94195C8.9024 8.44328 8.99973 7.66795 8.36173 6.99328C9.06773 7.07328 9.28773 8.32795 9.89907 8.57128C9.4964 8.00261 9.7144 7.25261 9.1904 6.48595C9.87573 6.67528 9.8964 7.94861 10.4617 8.28461C10.1537 7.65995 10.4857 6.95328 10.0877 6.11461C10.7344 6.40861 10.5557 7.66928 11.0617 8.08995C10.8551 7.42461 11.2944 6.77861 11.0324 5.88728C11.6257 6.27928 11.2511 7.49661 11.6851 7.99061C11.5844 7.30128 12.1191 6.73195 12.0004 5.81128C12.5244 6.29061 11.9644 7.43461 12.3151 7.99061Z" fill="#FFCC4D"/>
<path d="M12.0004 15.2706C12.4299 15.2704 12.8552 15.1858 13.2519 15.0214C13.6488 14.8568 14.0092 14.6159 14.3129 14.3122C14.6165 14.0083 14.8574 13.6478 15.0217 13.2509C15.186 12.8541 15.2705 12.4288 15.2704 11.9992C15.2702 11.5697 15.1856 11.1444 15.0212 10.7477C14.8566 10.3509 14.6157 9.99038 14.312 9.68673C14.0081 9.38307 13.6476 9.14223 13.2507 8.97795C12.8539 8.81366 12.4285 8.72915 11.999 8.72925C11.1316 8.72942 10.2998 9.07418 9.68651 9.68768C9.07327 10.3012 8.72885 11.1331 8.72903 12.0006C8.72921 12.868 9.07397 13.6998 9.68746 14.3131C10.301 14.9263 11.1329 15.2707 12.0004 15.2706Z" fill="#E8112D"/>
<path d="M11.9993 8.96729C12.834 8.96729 13.5841 9.32462 14.1061 9.89595C13.2867 9.97862 12.592 10.172 11.9993 10.466C11.4067 10.172 10.7113 9.97862 9.89334 9.89595C10.1603 9.60291 10.4855 9.36891 10.8482 9.20899C11.2108 9.04906 11.603 8.96673 11.9993 8.96729ZM11.784 10.582C11.7187 10.6184 11.6542 10.6564 11.5907 10.696C11.0593 10.414 10.4227 10.232 9.66601 10.178C9.70053 10.1291 9.73677 10.0815 9.77468 10.0353C10.5607 10.1053 11.224 10.2933 11.784 10.582ZM12.2167 10.582C12.2827 10.6186 12.3467 10.6566 12.4093 10.696C12.9413 10.414 13.5774 10.232 14.3341 10.178C14.2997 10.1291 14.2637 10.0815 14.2261 10.0353C13.4394 10.1053 12.7767 10.2933 12.2167 10.582ZM9.57068 10.3246C9.54044 10.3737 9.51176 10.4237 9.48468 10.4746C10.1887 10.4906 10.7793 10.6533 11.2647 10.9213C11.3154 10.883 11.3669 10.8459 11.4193 10.81C10.9127 10.5333 10.3 10.3606 9.57068 10.3246ZM9.48401 13.1633C9.23868 12.7413 9.14801 12.342 9.14801 11.8193C9.14801 11.3926 9.24001 10.99 9.40668 10.628C10.088 10.6233 10.658 10.772 11.1233 11.0306C10.4347 11.5953 9.87534 12.2566 9.48401 13.1633ZM10.8373 14.422C10.7093 14.3726 10.57 14.2333 10.4513 14.1666C10.5187 13.0953 11.02 12.214 11.7187 11.4726C11.7707 11.5233 11.8207 11.574 11.8687 11.628C11.2193 12.3873 10.802 13.3726 10.8373 14.422ZM14.4301 10.3246C14.4601 10.3733 14.4887 10.4233 14.5161 10.4746C13.8114 10.4906 13.2207 10.6533 12.736 10.9213C12.6852 10.8828 12.6334 10.8457 12.5807 10.81C13.088 10.5333 13.7001 10.3606 14.4301 10.3246Z" fill="#FFCC4D"/>
<path d="M14.5171 13.164C14.7618 12.742 14.8531 12.342 14.8531 11.8194C14.8531 11.3927 14.7605 10.99 14.5938 10.628C13.9131 10.6234 13.3425 10.772 12.8771 11.0307C13.5671 11.5954 14.1271 12.2574 14.5171 13.164ZM12.0011 11.872C12.5125 12.6947 12.6105 13.5947 12.5825 14.6114C12.3605 14.666 12.2405 14.6714 12.0011 14.6714C11.7618 14.6714 11.6418 14.666 11.4198 14.6114C11.3918 13.6467 11.4898 12.726 12.0011 11.872ZM13.1605 14.422C13.2878 14.3727 13.4311 14.2747 13.5498 14.2087C13.4825 13.1374 12.9805 12.214 12.2818 11.4734C12.2303 11.5235 12.1805 11.5753 12.1325 11.6287C12.7831 12.3874 13.1958 13.3727 13.1605 14.422ZM11.5498 11.3207C11.4868 11.2686 11.4216 11.2193 11.3545 11.1727C10.6311 11.814 10.0938 12.5594 9.79245 13.5694C9.90378 13.6967 9.90178 13.7907 10.0338 13.896C10.2205 12.834 10.8251 12.0214 11.5498 11.3207ZM12.4531 11.3207C12.5138 11.2707 12.5825 11.218 12.6485 11.1727C13.3718 11.814 13.9071 12.5727 14.2091 13.5834C14.0971 13.7107 14.0811 13.7914 13.9478 13.8967C13.7618 12.834 13.1778 12.0214 12.4531 11.3207ZM12.0011 10.7027C12.0371 10.724 12.1605 10.8014 12.1918 10.822C12.1431 10.852 12.0318 10.9274 12.0011 10.948C11.9386 10.9045 11.875 10.8625 11.8105 10.822C11.8418 10.8014 11.9651 10.7234 12.0011 10.7027ZM11.6405 10.9407C11.5918 10.9774 11.5178 11.034 11.4898 11.058C11.5598 11.104 11.6538 11.1754 11.6838 11.1987C11.7205 11.1674 11.7925 11.1034 11.8331 11.074C11.7709 11.0268 11.7066 10.9824 11.6405 10.9407ZM12.3618 10.9407C12.4105 10.9774 12.4845 11.034 12.5125 11.058C12.4463 11.1028 12.3816 11.1497 12.3185 11.1987C12.2825 11.1674 12.2098 11.1034 12.1691 11.074C12.2191 11.0374 12.3245 10.9614 12.3618 10.9407ZM12.0011 11.2067C12.0325 11.2334 12.1251 11.3154 12.1498 11.34C12.098 11.3857 12.0484 11.4337 12.0011 11.484C11.9543 11.4335 11.9049 11.3855 11.8531 11.34C11.8771 11.3154 11.9705 11.234 12.0011 11.2067Z" fill="#FFCC4D"/>
</svg>
