<svg width="24" height="24" viewBox="0 0 24 24" fill="none" xmlns="http://www.w3.org/2000/svg">
<path d="M22.1146 20.3611L16.3651 14.6093C17.3957 13.2037 17.9478 11.5043 17.9401 9.76133C17.9205 5.21162 14.2406 1.52636 9.69089 1.50008C7.51361 1.49023 5.42282 2.35157 3.8843 3.89221C2.34577 5.43285 1.4873 7.52482 1.50014 9.70208C1.51981 14.2522 5.20004 17.9378 9.75014 17.9641C11.5002 17.9717 13.2058 17.4131 14.6124 16.3718L14.6184 16.3673L20.3626 22.1146C20.6732 22.4404 21.136 22.5723 21.5717 22.4591C22.0073 22.346 22.3475 22.0056 22.4602 21.5698C22.573 21.134 22.4407 20.6714 22.1146 20.3611ZM9.74414 16.3171C6.10426 16.2961 3.16012 13.348 3.14414 9.70808C3.13432 7.9665 3.82115 6.29326 5.05174 5.06084C6.28233 3.82842 7.95454 3.1391 9.69614 3.14633C13.336 3.16727 16.2802 6.11543 16.2961 9.75533C16.306 11.4969 15.6191 13.1702 14.3885 14.4026C13.158 15.635 11.4857 16.3243 9.74414 16.3171Z" fill="#808DA8"/>
</svg>
