<svg width="56" height="56" viewBox="0 0 56 56" fill="none" xmlns="http://www.w3.org/2000/svg">
<circle opacity="0.1" cx="28" cy="28" r="28" fill="#808DA8"/>
<path d="M33.333 22.6667C33.333 19.72 30.9463 17.3333 27.9997 17.3333C25.053 17.3333 22.6663 19.72 22.6663 22.6667C22.6663 25.6133 25.053 28 27.9997 28C30.9463 28 33.333 25.6133 33.333 22.6667ZM17.333 36V37.3267C17.333 38.0667 17.9329 38.6667 18.673 38.6667H37.3263C38.0664 38.6667 38.6663 38.0667 38.6663 37.3267V36C38.6663 31.3333 31.5597 30 27.9997 30C24.4397 30 17.333 31.3333 17.333 36Z" fill="#99A2AD"/>
</svg>
