<svg width="120" height="48" viewBox="0 0 120 48" fill="none" xmlns="http://www.w3.org/2000/svg">
<rect opacity="0.2" x="1" y="1" width="118" height="46" rx="3" stroke="white" stroke-width="2"/>
<path d="M49.588 21L48.608 18.746H44.618L43.596 21H42.056L46.704 11.116L51.128 21H49.588ZM45.206 17.402H48.034L46.648 14.238L45.206 17.402ZM53.4275 20.314V24.206H52.0555V15.106H53.4275V15.75C53.8755 15.218 54.4588 14.952 55.1775 14.952C55.9802 14.952 56.6568 15.2367 57.2075 15.806C57.7675 16.366 58.0475 17.1033 58.0475 18.018C58.0475 18.9607 57.7582 19.726 57.1795 20.314C56.6008 20.8927 55.9382 21.182 55.1915 21.182C54.4915 21.182 53.9035 20.8927 53.4275 20.314ZM55.0095 16.184C54.5428 16.184 54.1462 16.352 53.8195 16.688C53.5022 17.0147 53.3435 17.4813 53.3435 18.088C53.3435 18.676 53.5022 19.1333 53.8195 19.46C54.1462 19.7867 54.5428 19.95 55.0095 19.95C55.4948 19.95 55.8868 19.768 56.1855 19.404C56.4935 19.04 56.6475 18.5967 56.6475 18.074C56.6475 17.542 56.4935 17.094 56.1855 16.73C55.8868 16.366 55.4948 16.184 55.0095 16.184ZM60.8513 20.314V24.206H59.4793V15.106H60.8513V15.75C61.2993 15.218 61.8827 14.952 62.6013 14.952C63.404 14.952 64.0807 15.2367 64.6313 15.806C65.1913 16.366 65.4713 17.1033 65.4713 18.018C65.4713 18.9607 65.182 19.726 64.6033 20.314C64.0247 20.8927 63.362 21.182 62.6153 21.182C61.9153 21.182 61.3273 20.8927 60.8513 20.314ZM62.4333 16.184C61.9667 16.184 61.57 16.352 61.2433 16.688C60.926 17.0147 60.7673 17.4813 60.7673 18.088C60.7673 18.676 60.926 19.1333 61.2433 19.46C61.57 19.7867 61.9667 19.95 62.4333 19.95C62.9187 19.95 63.3107 19.768 63.6093 19.404C63.9173 19.04 64.0713 18.5967 64.0713 18.074C64.0713 17.542 63.9173 17.094 63.6093 16.73C63.3107 16.366 62.9187 16.184 62.4333 16.184ZM72.3352 13.062L71.1872 13.734C71.0938 13.51 70.9538 13.314 70.7672 13.146C70.4872 12.922 70.1512 12.81 69.7592 12.81C69.3392 12.81 69.0125 12.9173 68.7792 13.132C68.5552 13.3467 68.4432 13.6127 68.4432 13.93C68.4432 14.4153 68.7792 14.7933 69.4512 15.064L70.3892 15.442C71.8545 16.0393 72.5872 16.954 72.5872 18.186C72.5872 19.0727 72.3025 19.796 71.7332 20.356C71.1732 20.9067 70.4545 21.182 69.5772 21.182C68.6718 21.182 67.9392 20.8693 67.3792 20.244C66.9218 19.7307 66.6605 19.124 66.5952 18.424L68.0092 18.116C68.0092 18.564 68.1398 18.9607 68.4012 19.306C68.6998 19.6793 69.1058 19.866 69.6192 19.866C70.0578 19.866 70.4218 19.7213 70.7112 19.432C71.0098 19.1427 71.1592 18.7647 71.1592 18.298C71.1592 17.8687 71.0332 17.5373 70.7812 17.304C70.5385 17.0707 70.2165 16.87 69.8152 16.702L68.9192 16.324C67.6498 15.792 67.0152 15.0033 67.0152 13.958C67.0152 13.286 67.2578 12.7073 67.7432 12.222C68.2378 11.7367 68.9052 11.494 69.7452 11.494C70.5012 11.494 71.1265 11.704 71.6212 12.124C71.9105 12.3853 72.1485 12.698 72.3352 13.062ZM76.5859 16.366H75.5359V21H74.1639V16.366H73.5899V15.106H74.1639V12.95H75.5359V15.106H76.5859V16.366ZM78.1005 15.834C78.7072 15.246 79.4585 14.952 80.3545 14.952C81.2505 14.952 81.9972 15.246 82.5945 15.834C83.2012 16.4127 83.5045 17.1547 83.5045 18.06C83.5045 18.956 83.2012 19.7027 82.5945 20.3C81.9972 20.888 81.2505 21.182 80.3545 21.182C79.4585 21.182 78.7072 20.888 78.1005 20.3C77.5032 19.7027 77.2045 18.956 77.2045 18.06C77.2045 17.1547 77.5032 16.4127 78.1005 15.834ZM79.0805 19.446C79.3979 19.782 79.8225 19.95 80.3545 19.95C80.8865 19.95 81.3112 19.782 81.6285 19.446C81.9459 19.1007 82.1045 18.6433 82.1045 18.074C82.1045 17.4487 81.9319 16.9773 81.5865 16.66C81.2505 16.3427 80.8399 16.184 80.3545 16.184C79.8692 16.184 79.4539 16.3427 79.1085 16.66C78.7725 16.9773 78.6045 17.4487 78.6045 18.074C78.6045 18.6433 78.7632 19.1007 79.0805 19.446ZM84.9364 21V15.106H86.3084V15.638C86.4857 15.4327 86.677 15.2693 86.8824 15.148C87.1064 15.0173 87.3864 14.952 87.7224 14.952C88.1237 14.952 88.483 15.0453 88.8004 15.232L88.2404 16.478C88.0164 16.338 87.783 16.268 87.5404 16.268C87.1764 16.268 86.8917 16.3753 86.6864 16.59C86.4344 16.8607 86.3084 17.3133 86.3084 17.948V21H84.9364ZM93.2773 19.012L94.4253 19.656C94.164 20.1227 93.8326 20.482 93.4313 20.734C92.974 21.0327 92.3953 21.182 91.6953 21.182C90.874 21.182 90.2113 20.93 89.7073 20.426C89.1286 19.8473 88.8393 19.096 88.8393 18.172C88.8393 17.2013 89.152 16.394 89.7773 15.75C90.3093 15.218 90.9673 14.952 91.7513 14.952C92.5166 14.952 93.1466 15.2087 93.6413 15.722C94.192 16.2913 94.4673 17.122 94.4673 18.214V18.382H90.2393C90.2766 18.8767 90.4446 19.2733 90.7433 19.572C90.9953 19.824 91.3453 19.95 91.7933 19.95C92.1573 19.95 92.47 19.852 92.7313 19.656C92.946 19.488 93.128 19.2733 93.2773 19.012ZM90.3373 17.262H93.0673C93.0113 16.9353 92.8713 16.6693 92.6473 16.464C92.4046 16.24 92.0966 16.128 91.7233 16.128C91.3313 16.128 91.0093 16.254 90.7573 16.506C90.552 16.6927 90.412 16.9447 90.3373 17.262Z" fill="white"/>
<path d="M50.036 28.166V29.846C49.2707 29.1553 48.426 28.81 47.502 28.81C46.494 28.81 45.6727 29.146 45.038 29.818C44.4127 30.4807 44.1 31.33 44.1 32.366C44.1 33.3647 44.422 34.2 45.066 34.872C45.71 35.5347 46.5267 35.866 47.516 35.866C48.44 35.866 49.28 35.5067 50.036 34.788V36.482C49.252 36.9487 48.398 37.182 47.474 37.182C46.1767 37.182 45.0753 36.7527 44.17 35.894C43.1713 34.9607 42.672 33.7847 42.672 32.366C42.672 30.8727 43.1713 29.6547 44.17 28.712C45.0287 27.9 46.1533 27.494 47.544 27.494C48.5053 27.494 49.336 27.718 50.036 28.166ZM51.5496 31.106H52.9216V33.206L54.8816 31.106H56.7016L54.1256 33.682L56.8416 37H55.1056L53.1456 34.578L52.9216 34.802V37H51.5496V31.106ZM62.055 31.792V31.106H63.427V37H62.055V36.384C61.5977 36.916 61.0097 37.182 60.291 37.182C59.423 37.182 58.7277 36.874 58.205 36.258C57.6917 35.642 57.435 34.9047 57.435 34.046C57.435 33.1127 57.7103 32.366 58.261 31.806C58.821 31.2367 59.5023 30.952 60.305 30.952C61.0423 30.952 61.6257 31.232 62.055 31.792ZM60.473 32.184C59.9877 32.184 59.591 32.366 59.283 32.73C58.9843 33.094 58.835 33.542 58.835 34.074C58.835 34.5967 58.9843 35.04 59.283 35.404C59.591 35.768 59.9877 35.95 60.473 35.95C60.9397 35.95 61.3317 35.7867 61.649 35.46C61.9757 35.1333 62.139 34.676 62.139 34.088C62.139 33.4813 61.9757 33.0147 61.649 32.688C61.3317 32.352 60.9397 32.184 60.473 32.184ZM68.3588 37V34.718C67.9388 34.802 67.5375 34.844 67.1548 34.844C66.4828 34.844 65.9648 34.6993 65.6008 34.41C65.2182 34.102 65.0268 33.6307 65.0268 32.996V31.106H66.3988V32.716C66.3988 33.1173 66.5155 33.388 66.7488 33.528C66.9075 33.6213 67.1362 33.668 67.4348 33.668C67.7708 33.668 68.0788 33.6167 68.3588 33.514V31.106H69.7308V37H68.3588ZM75.7816 31.792V31.106H77.1536V37H75.7816V36.384C75.3242 36.916 74.7362 37.182 74.0176 37.182C73.1496 37.182 72.4542 36.874 71.9316 36.258C71.4182 35.642 71.1616 34.9047 71.1616 34.046C71.1616 33.1127 71.4369 32.366 71.9876 31.806C72.5476 31.2367 73.2289 30.952 74.0316 30.952C74.7689 30.952 75.3522 31.232 75.7816 31.792ZM74.1996 32.184C73.7142 32.184 73.3176 32.366 73.0096 32.73C72.7109 33.094 72.5616 33.542 72.5616 34.074C72.5616 34.5967 72.7109 35.04 73.0096 35.404C73.3176 35.768 73.7142 35.95 74.1996 35.95C74.6662 35.95 75.0582 35.7867 75.3756 35.46C75.7022 35.1333 75.8656 34.676 75.8656 34.088C75.8656 33.4813 75.7022 33.0147 75.3756 32.688C75.0582 32.352 74.6662 32.184 74.1996 32.184ZM82.9534 32.366H81.2314V37H79.8594V32.366H78.1374V31.106H82.9534V32.366ZM83.9383 37V31.106H85.3103V33.192H86.0943C86.3463 33.192 86.5516 33.2013 86.7103 33.22C86.869 33.2293 87.0603 33.2807 87.2843 33.374C87.5083 33.4673 87.7043 33.6073 87.8723 33.794C88.1803 34.1393 88.3343 34.5687 88.3343 35.082C88.3343 35.67 88.157 36.1413 87.8023 36.496C87.6436 36.6547 87.4523 36.776 87.2283 36.86C87.0136 36.9347 86.8316 36.9767 86.6823 36.986C86.5423 36.9953 86.3416 37 86.0803 37H83.9383ZM85.3103 35.824H85.9403C86.2763 35.824 86.5143 35.782 86.6543 35.698C86.8596 35.5487 86.9623 35.348 86.9623 35.096C86.9623 34.8347 86.8643 34.6387 86.6683 34.508C86.519 34.4147 86.281 34.368 85.9543 34.368H85.3103V35.824Z" fill="white"/>
<path d="M13.6005 33.0152C14.4105 34.0221 15.6273 34.9971 17.0279 34.9971C17.8248 34.9971 18.5016 34.6221 19.2291 34.3483C19.8991 34.1013 20.6074 33.9743 21.3215 33.9733C22.0105 33.9694 22.6932 34.1032 23.3296 34.3671C23.6671 34.5096 24.0009 34.6615 24.344 34.7927C24.6921 34.9271 25.062 34.9963 25.4352 34.9971C26.1255 34.9892 26.7974 34.7728 27.3627 34.3765C29.0051 33.2515 30.222 31.2753 31.0844 29.5447C31.1707 29.3722 31.2532 29.1978 31.3357 29.0253C31.4726 28.7366 31.2569 28.371 30.8745 28.161C29.187 27.2347 28.1989 25.8023 28.0339 23.8261C27.8689 21.8499 28.6376 20.2899 30.1807 19.1574L30.4845 18.9081C30.6532 18.7693 30.5613 18.3849 30.2445 18.085C29.0773 16.9356 27.5136 16.2779 25.8758 16.2475C25.5579 16.2477 25.2406 16.274 24.9271 16.3262C23.5021 16.57 22.3584 17.2487 21.0159 17.2487C20.6086 17.2492 20.2037 17.1859 19.816 17.0612C18.691 16.7012 17.5735 16.2475 16.3773 16.2475C16.246 16.2475 16.1129 16.2475 15.9798 16.2644C14.5051 16.4215 13.128 17.077 12.0761 18.1225C10.0024 20.1662 9.70806 23.3405 10.2256 26.0235C10.7224 28.6222 11.9449 30.964 13.6005 33.0152Z" fill="white"/>
<path d="M20.8769 16.2475C20.9038 16.2499 20.9307 16.2499 20.9576 16.2475C24.9194 15.5088 25.3525 12.4488 25.3768 11.3314C25.3777 11.2862 25.3692 11.2413 25.3519 11.1995C25.3346 11.1578 25.3088 11.1201 25.2763 11.0887C25.2437 11.0574 25.205 11.0331 25.1626 11.0175C25.1203 11.0018 25.0751 10.995 25.03 10.9976C24.9965 10.9976 24.9632 11.0014 24.9306 11.0089C20.9294 11.9351 20.5132 14.8206 20.502 15.8987C20.5029 15.9465 20.5134 15.9936 20.5329 16.0372C20.5525 16.0808 20.5805 16.1201 20.6155 16.1526C20.6505 16.1851 20.6917 16.2103 20.7366 16.2266C20.7815 16.2429 20.8292 16.25 20.8769 16.2475ZM24.5819 11.877C24.4225 13.0132 23.7644 14.7625 21.2894 15.4C21.4394 14.3332 22.0694 12.6419 24.5819 11.877Z" fill="white"/>
</svg>
