<svg width="24" height="24" viewBox="0 0 24 24" fill="none" xmlns="http://www.w3.org/2000/svg">
<path d="M24 17.9999C24 18.7071 23.7191 19.3854 23.2189 19.8855C22.7188 20.3857 22.0405 20.6666 21.3333 20.6666H2.66667C1.95943 20.6666 1.28115 20.3857 0.781048 19.8855C0.280952 19.3854 0 18.7071 0 17.9999V5.99992C0 5.29268 0.280952 4.6144 0.781048 4.11431C1.28115 3.6142 1.95943 3.33325 2.66667 3.33325H21.3333C22.0405 3.33325 22.7188 3.6142 23.2189 4.11431C23.7191 4.6144 24 5.29268 24 5.99992V17.9999Z" fill="#E8112D"/>
<path d="M12.3155 7.99061C12.3249 7.29395 12.9422 6.81461 12.9682 5.88661C13.4102 6.44261 12.6795 7.48461 12.9389 8.08928C13.0575 7.40328 13.7408 7.02595 13.9128 6.11395C14.2628 6.73261 13.3775 7.64728 13.5388 8.28461C13.7628 7.62461 14.4975 7.35995 14.8095 6.48528C15.0582 7.15128 14.0415 7.91595 14.1015 8.57061C14.4255 7.95461 15.1928 7.80795 15.6382 6.99261C15.7802 7.68928 14.6548 8.28528 14.6122 8.94195C15.0288 8.38395 15.8102 8.35861 16.3768 7.62328C16.4082 8.33395 15.2035 8.74595 15.0588 9.38795C15.5575 8.90195 16.3322 8.99928 17.0068 8.36128C16.9275 9.06795 15.6735 9.28728 15.4288 9.89861C15.9982 9.49661 16.7488 9.71395 17.5148 9.18995C17.3262 9.87528 16.0528 9.89595 15.7168 10.4613C16.3408 10.1533 17.0475 10.4853 17.8875 10.0873C17.5935 10.7339 16.3315 10.5553 15.9108 11.0613C16.5762 10.8546 17.2235 11.2939 18.1142 11.0319C17.7208 11.6253 16.5048 11.2506 16.0102 11.6846C16.6988 11.5846 17.2695 12.1186 18.1895 11.9999C17.7102 12.5246 16.5662 11.9646 16.0102 12.3153C16.7068 12.3246 17.1862 12.9426 18.1128 12.9673C17.5568 13.4113 16.5155 12.6779 15.9108 12.9386C16.5982 13.0573 16.9748 13.7406 17.8875 13.9126C17.2688 14.2626 16.3535 13.3773 15.7155 13.5386C16.3755 13.7626 16.6415 14.4973 17.5148 14.8093C16.8495 15.0593 16.0855 14.0413 15.4288 14.1013C16.0462 14.4253 16.1935 15.1926 17.0068 15.638C16.3102 15.78 15.7148 14.6546 15.0575 14.612C15.6162 15.0286 15.6408 15.81 16.3768 16.3766C15.6668 16.408 15.2528 15.2033 14.6122 15.0586C15.0982 15.5573 15.0002 16.332 15.6382 17.0066C14.9308 16.9273 14.7122 15.6733 14.1015 15.4286C14.5028 15.998 14.2848 16.7486 14.8095 17.5146C14.1235 17.326 14.1035 16.0526 13.5388 15.7166C13.8475 16.3406 13.5142 17.0473 13.9128 17.8873C13.2655 17.5933 13.4442 16.3313 12.9389 15.9106C13.1449 16.576 12.7069 17.2233 12.9682 18.114C12.3749 17.7206 12.7495 16.5046 12.3155 16.01C12.4155 16.6986 11.8815 17.2693 12.0002 18.1893C11.4755 17.71 12.0355 16.566 11.6849 16.01C11.6755 16.7066 11.0582 17.186 11.0322 18.1126C10.5889 17.558 11.3209 16.5153 11.0609 15.9106C10.9429 16.598 10.2589 16.9746 10.0875 17.8873C9.73752 17.2686 10.6229 16.3533 10.4609 15.7166C10.2369 16.3753 9.50219 16.6413 9.19019 17.5146C8.94086 16.8493 9.95886 16.0853 9.89886 15.4286C9.57419 16.046 8.80686 16.1933 8.36219 17.0066C8.22019 16.31 9.34552 15.7146 9.38819 15.0586C8.97152 15.616 8.19086 15.6406 7.62419 16.3766C7.59219 15.6666 8.79752 15.2526 8.94219 14.612C8.44352 15.098 7.66819 15 6.99352 15.638C7.07352 14.9306 8.32819 14.712 8.57152 14.1013C8.00286 14.5026 7.25219 14.2846 6.48619 14.8093C6.67552 14.1233 7.94886 14.1033 8.28486 13.5386C7.66019 13.8473 6.95352 13.5153 6.11419 13.9126C6.40886 13.2653 7.66952 13.444 8.09019 12.9386C7.42486 13.1446 6.77886 12.7066 5.88752 12.9673C6.27952 12.3753 7.49686 12.7486 7.99086 12.3153C7.30152 12.4153 6.73219 11.8806 5.81152 11.9999C6.29152 11.4759 7.43486 12.0353 7.99086 11.6846C7.29486 11.6753 6.81552 11.0579 5.88752 11.0319C6.44352 10.5886 7.48552 11.3206 8.09019 11.0606C7.40352 10.9426 7.02686 10.2586 6.11486 10.0873C6.73352 9.73661 7.64819 10.6226 8.28552 10.4606C7.62552 10.2366 7.36086 9.50195 6.48619 9.18995C7.15219 8.94061 7.91686 9.95861 8.57152 9.89861C7.95486 9.57395 7.80886 8.80661 6.99352 8.36195C7.69019 8.21995 8.28619 9.34528 8.94286 9.38795C8.38486 8.97128 8.35952 8.19061 7.62419 7.62395C8.33419 7.59261 8.74686 8.79728 9.38886 8.94195C8.90286 8.44328 9.00019 7.66795 8.36219 6.99328C9.06819 7.07328 9.28819 8.32795 9.89952 8.57128C9.49686 8.00261 9.71486 7.25261 9.19086 6.48595C9.87619 6.67528 9.89686 7.94861 10.4622 8.28461C10.1542 7.65995 10.4862 6.95328 10.0882 6.11461C10.7349 6.40861 10.5562 7.66928 11.0622 8.08995C10.8555 7.42461 11.2949 6.77861 11.0329 5.88728C11.6262 6.27928 11.2515 7.49661 11.6855 7.99061C11.5849 7.30128 12.1195 6.73195 12.0009 5.81128C12.5249 6.29061 11.9649 7.43461 12.3155 7.99061Z" fill="#FFCC4D"/>
<path d="M12.0008 15.2706C12.4303 15.2704 12.8556 15.1858 13.2524 15.0214C13.6492 14.8568 14.0096 14.6159 14.3134 14.3122C14.617 14.0083 14.8579 13.6478 15.0222 13.2509C15.1864 12.8541 15.271 12.4288 15.2708 11.9992C15.2707 11.5697 15.186 11.1444 15.0216 10.7477C14.8571 10.3509 14.6162 9.99038 14.3124 9.68673C14.0086 9.38307 13.648 9.14223 13.2512 8.97795C12.8543 8.81366 12.429 8.72915 11.9995 8.72925C11.1321 8.72942 10.3002 9.07418 9.68697 9.68768C9.07373 10.3012 8.72931 11.1331 8.72949 12.0006C8.72967 12.868 9.07443 13.6998 9.68792 14.3131C10.3014 14.9263 11.1334 15.2707 12.0008 15.2706Z" fill="#E8112D"/>
<path d="M11.9998 8.96729C12.8344 8.96729 13.5845 9.32462 14.1065 9.89595C13.2871 9.97862 12.5924 10.172 11.9998 10.466C11.4071 10.172 10.7118 9.97862 9.89377 9.89595C10.1607 9.60291 10.4859 9.36891 10.8486 9.20899C11.2113 9.04906 11.6034 8.96673 11.9998 8.96729ZM11.7844 10.582C11.7191 10.6184 11.6546 10.6564 11.5911 10.696C11.0598 10.414 10.4231 10.232 9.66644 10.178C9.70096 10.1291 9.7372 10.0815 9.7751 10.0353C10.5611 10.1053 11.2244 10.2933 11.7844 10.582ZM12.2171 10.582C12.2831 10.6186 12.3471 10.6566 12.4098 10.696C12.9418 10.414 13.5778 10.232 14.3345 10.178C14.3001 10.1291 14.2641 10.0815 14.2265 10.0353C13.4398 10.1053 12.7771 10.2933 12.2171 10.582ZM9.5711 10.3246C9.54086 10.3737 9.51218 10.4237 9.4851 10.4746C10.1891 10.4906 10.7798 10.6533 11.2651 10.9213C11.3158 10.883 11.3674 10.8459 11.4198 10.81C10.9131 10.5333 10.3004 10.3606 9.5711 10.3246ZM9.48444 13.1633C9.2391 12.7413 9.14844 12.342 9.14844 11.8193C9.14844 11.3926 9.24044 10.99 9.4071 10.628C10.0884 10.6233 10.6584 10.772 11.1238 11.0306C10.4351 11.5953 9.87577 12.2566 9.48444 13.1633ZM10.8378 14.422C10.7098 14.3726 10.5704 14.2333 10.4518 14.1666C10.5191 13.0953 11.0204 12.214 11.7191 11.4726C11.7711 11.5233 11.8211 11.574 11.8691 11.628C11.2198 12.3873 10.8024 13.3726 10.8378 14.422ZM14.4305 10.3246C14.4605 10.3733 14.4892 10.4233 14.5165 10.4746C13.8118 10.4906 13.2211 10.6533 12.7364 10.9213C12.6856 10.8828 12.6339 10.8457 12.5811 10.81C13.0884 10.5333 13.7005 10.3606 14.4305 10.3246Z" fill="#FFCC4D"/>
<path d="M14.5167 13.164C14.7613 12.742 14.8527 12.342 14.8527 11.8194C14.8527 11.3927 14.76 10.99 14.5933 10.628C13.9127 10.6234 13.342 10.772 12.8767 11.0307C13.5667 11.5954 14.1267 12.2574 14.5167 13.164ZM12.0007 11.872C12.512 12.6947 12.61 13.5947 12.582 14.6114C12.36 14.666 12.24 14.6714 12.0007 14.6714C11.7613 14.6714 11.6413 14.666 11.4193 14.6114C11.3913 13.6467 11.4893 12.726 12.0007 11.872ZM13.16 14.422C13.2873 14.3727 13.4307 14.2747 13.5493 14.2087C13.482 13.1374 12.98 12.214 12.2813 11.4734C12.2299 11.5235 12.1801 11.5753 12.132 11.6287C12.7827 12.3874 13.1953 13.3727 13.16 14.422ZM11.5493 11.3207C11.4863 11.2686 11.4212 11.2193 11.354 11.1727C10.6307 11.814 10.0933 12.5594 9.79199 13.5694C9.90333 13.6967 9.90133 13.7907 10.0333 13.896C10.22 12.834 10.8247 12.0214 11.5493 11.3207ZM12.4527 11.3207C12.5133 11.2707 12.582 11.218 12.648 11.1727C13.3713 11.814 13.9067 12.5727 14.2087 13.5834C14.0967 13.7107 14.0807 13.7914 13.9473 13.8967C13.7613 12.834 13.1773 12.0214 12.4527 11.3207ZM12.0007 10.7027C12.0367 10.724 12.16 10.8014 12.1913 10.822C12.1427 10.852 12.0313 10.9274 12.0007 10.948C11.9381 10.9045 11.8746 10.8625 11.81 10.822C11.8413 10.8014 11.9647 10.7234 12.0007 10.7027ZM11.64 10.9407C11.5913 10.9774 11.5173 11.034 11.4893 11.058C11.5593 11.104 11.6533 11.1754 11.6833 11.1987C11.72 11.1674 11.792 11.1034 11.8327 11.074C11.7704 11.0268 11.7061 10.9824 11.64 10.9407ZM12.3613 10.9407C12.41 10.9774 12.484 11.034 12.512 11.058C12.4458 11.1028 12.3811 11.1497 12.318 11.1987C12.282 11.1674 12.2093 11.1034 12.1687 11.074C12.2187 11.0374 12.324 10.9614 12.3613 10.9407ZM12.0007 11.2067C12.032 11.2334 12.1247 11.3154 12.1493 11.34C12.0975 11.3857 12.0479 11.4337 12.0007 11.484C11.9538 11.4335 11.9044 11.3855 11.8527 11.34C11.8767 11.3154 11.97 11.234 12.0007 11.2067Z" fill="#FFCC4D"/>
</svg>
