<svg width="60" height="60" viewBox="0 0 60 60" fill="none" xmlns="http://www.w3.org/2000/svg">
<path opacity="0.1" d="M45.9375 57.1875H14.0625C12.5707 57.1875 11.1399 56.5949 10.085 55.54C9.03013 54.4851 8.4375 53.0543 8.4375 51.5625V8.4375C8.4375 6.94566 9.03013 5.51492 10.085 4.46002C11.1399 3.40513 12.5707 2.8125 14.0625 2.8125H40.3125L51.5625 14.0625V51.5625C51.5625 53.0543 50.9699 54.4851 49.915 55.54C48.8601 56.5949 47.4293 57.1875 45.9375 57.1875Z" fill="#004679"/>
<path d="M15.9375 16.9375C15.9375 16.3852 16.3852 15.9375 16.9375 15.9375H24.3125C24.8648 15.9375 25.3125 16.3852 25.3125 16.9375V26.1875C25.3125 26.7398 24.8648 27.1875 24.3125 27.1875H16.9375C16.3852 27.1875 15.9375 26.7398 15.9375 26.1875V16.9375Z" fill="#004679"/>
<path d="M8.4375 42.1875H51.5625V51.5625C51.5625 53.0543 50.9699 54.4851 49.915 55.54C48.8601 56.5949 47.4293 57.1875 45.9375 57.1875H14.0625C12.5707 57.1875 11.1399 56.5949 10.085 55.54C9.03013 54.4851 8.4375 53.0543 8.4375 51.5625V42.1875Z" fill="#004679"/>
<path d="M51.5625 14.0625H45.9375C44.4457 14.0625 43.0149 13.4699 41.96 12.415C40.9051 11.3601 40.3125 9.92934 40.3125 8.4375V2.8125L51.5625 14.0625Z" fill="#004679"/>
<path opacity="0.2" d="M44.0625 20.625H29.0625C28.8139 20.625 28.5754 20.5262 28.3996 20.3504C28.2238 20.1746 28.125 19.9361 28.125 19.6875C28.125 19.4389 28.2238 19.2004 28.3996 19.0246C28.5754 18.8488 28.8139 18.75 29.0625 18.75H44.0625C44.3111 18.75 44.5496 18.8488 44.7254 19.0246C44.9012 19.2004 45 19.4389 45 19.6875C45 19.9361 44.9012 20.1746 44.7254 20.3504C44.5496 20.5262 44.3111 20.625 44.0625 20.625Z" fill="#004679"/>
<path opacity="0.2" d="M32.8125 24.375H29.0625C28.8139 24.375 28.5754 24.2762 28.3996 24.1004C28.2238 23.9246 28.125 23.6861 28.125 23.4375C28.125 23.1889 28.2238 22.9504 28.3996 22.7746C28.5754 22.5988 28.8139 22.5 29.0625 22.5H32.8125C33.0611 22.5 33.2996 22.5988 33.4754 22.7746C33.6512 22.9504 33.75 23.1889 33.75 23.4375C33.75 23.6861 33.6512 23.9246 33.4754 24.1004C33.2996 24.2762 33.0611 24.375 32.8125 24.375Z" fill="#004679"/>
<path opacity="0.2" d="M44.0625 28.125H29.0625C28.8139 28.125 28.5754 28.0262 28.3996 27.8504C28.2238 27.6746 28.125 27.4361 28.125 27.1875C28.125 26.9389 28.2238 26.7004 28.3996 26.5246C28.5754 26.3488 28.8139 26.25 29.0625 26.25H44.0625C44.3111 26.25 44.5496 26.3488 44.7254 26.5246C44.9012 26.7004 45 26.9389 45 27.1875C45 27.4361 44.9012 27.6746 44.7254 27.8504C44.5496 28.0262 44.3111 28.125 44.0625 28.125Z" fill="#004679"/>
<path opacity="0.2" d="M37.5 31.875H15.9375C15.6889 31.875 15.4504 31.7762 15.2746 31.6004C15.0988 31.4246 15 31.1861 15 30.9375C15 30.6889 15.0988 30.4504 15.2746 30.2746C15.4504 30.0988 15.6889 30 15.9375 30H37.5C37.7486 30 37.9871 30.0988 38.1629 30.2746C38.3387 30.4504 38.4375 30.6889 38.4375 30.9375C38.4375 31.1861 38.3387 31.4246 38.1629 31.6004C37.9871 31.7762 37.7486 31.875 37.5 31.875Z" fill="#004679"/>
<path opacity="0.2" d="M44.0625 24.375H36.5625C36.3139 24.375 36.0754 24.2762 35.8996 24.1004C35.7238 23.9246 35.625 23.6861 35.625 23.4375C35.625 23.1889 35.7238 22.9504 35.8996 22.7746C36.0754 22.5988 36.3139 22.5 36.5625 22.5H44.0625C44.3111 22.5 44.5496 22.5988 44.7254 22.7746C44.9012 22.9504 45 23.1889 45 23.4375C45 23.6861 44.9012 23.9246 44.7254 24.1004C44.5496 24.2762 44.3111 24.375 44.0625 24.375Z" fill="#004679"/>
<path opacity="0.2" d="M44.0625 31.875H41.25C41.0014 31.875 40.7629 31.7762 40.5871 31.6004C40.4113 31.4246 40.3125 31.1861 40.3125 30.9375C40.3125 30.6889 40.4113 30.4504 40.5871 30.2746C40.7629 30.0988 41.0014 30 41.25 30H44.0625C44.3111 30 44.5496 30.0988 44.7254 30.2746C44.9012 30.4504 45 30.6889 45 30.9375C45 31.1861 44.9012 31.4246 44.7254 31.6004C44.5496 31.7762 44.3111 31.875 44.0625 31.875Z" fill="#004679"/>
<path opacity="0.2" d="M21.5625 35.625H15.9375C15.6889 35.625 15.4504 35.5262 15.2746 35.3504C15.0988 35.1746 15 34.9361 15 34.6875C15 34.4389 15.0988 34.2004 15.2746 34.0246C15.4504 33.8488 15.6889 33.75 15.9375 33.75H21.5625C21.8111 33.75 22.0496 33.8488 22.2254 34.0246C22.4012 34.2004 22.5 34.4389 22.5 34.6875C22.5 34.9361 22.4012 35.1746 22.2254 35.3504C22.0496 35.5262 21.8111 35.625 21.5625 35.625Z" fill="#004679"/>
<path opacity="0.2" d="M34.6875 35.625H25.3125C25.0639 35.625 24.8254 35.5262 24.6496 35.3504C24.4738 35.1746 24.375 34.9361 24.375 34.6875C24.375 34.4389 24.4738 34.2004 24.6496 34.0246C24.8254 33.8488 25.0639 33.75 25.3125 33.75H34.6875C34.9361 33.75 35.1746 33.8488 35.3504 34.0246C35.5262 34.2004 35.625 34.4389 35.625 34.6875C35.625 34.9361 35.5262 35.1746 35.3504 35.3504C35.1746 35.5262 34.9361 35.625 34.6875 35.625Z" fill="#004679"/>
<path opacity="0.2" d="M44.0625 35.625H38.4375C38.1889 35.625 37.9504 35.5262 37.7746 35.3504C37.5988 35.1746 37.5 34.9361 37.5 34.6875C37.5 34.4389 37.5988 34.2004 37.7746 34.0246C37.9504 33.8488 38.1889 33.75 38.4375 33.75H44.0625C44.3111 33.75 44.5496 33.8488 44.7254 34.0246C44.9012 34.2004 45 34.4389 45 34.6875C45 34.9361 44.9012 35.1746 44.7254 35.3504C44.5496 35.5262 44.3111 35.625 44.0625 35.625Z" fill="#004679"/>
<path opacity="0.2" d="M36.5625 16.875H29.0625C28.8139 16.875 28.5754 16.7762 28.3996 16.6004C28.2238 16.4246 28.125 16.1861 28.125 15.9375C28.125 15.6889 28.2238 15.4504 28.3996 15.2746C28.5754 15.0988 28.8139 15 29.0625 15H36.5625C36.8111 15 37.0496 15.0988 37.2254 15.2746C37.4012 15.4504 37.5 15.6889 37.5 15.9375C37.5 16.1861 37.4012 16.4246 37.2254 16.6004C37.0496 16.7762 36.8111 16.875 36.5625 16.875Z" fill="#004679"/>
<path d="M39.375 45H35.625C35.3764 45 35.1379 45.0988 34.9621 45.2746C34.7863 45.4504 34.6875 45.6889 34.6875 45.9375V53.4375C34.6875 53.6861 34.7863 53.9246 34.9621 54.1004C35.1379 54.2762 35.3764 54.375 35.625 54.375C35.8736 54.375 36.1121 54.2762 36.2879 54.1004C36.4637 53.9246 36.5625 53.6861 36.5625 53.4375V50.625H37.5C37.7486 50.625 37.9871 50.5262 38.1629 50.3504C38.3387 50.1746 38.4375 49.9361 38.4375 49.6875C38.4375 49.4389 38.3387 49.2004 38.1629 49.0246C37.9871 48.8488 37.7486 48.75 37.5 48.75H36.5625V46.875H39.375C39.6236 46.875 39.8621 46.7762 40.0379 46.6004C40.2137 46.4246 40.3125 46.1861 40.3125 45.9375C40.3125 45.6889 40.2137 45.4504 40.0379 45.2746C39.8621 45.0988 39.6236 45 39.375 45Z" fill="white"/>
<path d="M22.5 45H20.625C20.3764 45 20.1379 45.0988 19.9621 45.2746C19.7863 45.4504 19.6875 45.6889 19.6875 45.9375V53.4375C19.6875 53.6861 19.7863 53.9246 19.9621 54.1004C20.1379 54.2762 20.3764 54.375 20.625 54.375C20.8736 54.375 21.1121 54.2762 21.2879 54.1004C21.4637 53.9246 21.5625 53.6861 21.5625 53.4375V50.625H22.5C23.2459 50.625 23.9613 50.3287 24.4887 49.8012C25.0162 49.2738 25.3125 48.5584 25.3125 47.8125C25.3125 47.0666 25.0162 46.3512 24.4887 45.8238C23.9613 45.2963 23.2459 45 22.5 45ZM22.5 48.75H21.5625V46.875H22.5C22.7486 46.875 22.9871 46.9738 23.1629 47.1496C23.3387 47.3254 23.4375 47.5639 23.4375 47.8125C23.4375 48.0611 23.3387 48.2996 23.1629 48.4754C22.9871 48.6512 22.7486 48.75 22.5 48.75Z" fill="white"/>
<path d="M28.125 45C27.8764 45 27.6379 45.0988 27.4621 45.2746C27.2863 45.4504 27.1875 45.6889 27.1875 45.9375V53.4375C27.1875 53.6861 27.2863 53.9246 27.4621 54.1004C27.6379 54.2762 27.8764 54.375 28.125 54.375C29.3682 54.375 30.5605 53.8811 31.4396 53.0021C32.3186 52.123 32.8125 50.9307 32.8125 49.6875C32.8125 48.4443 32.3186 47.252 31.4396 46.3729C30.5605 45.4939 29.3682 45 28.125 45ZM29.0625 52.3393V47.0357C29.611 47.2295 30.0859 47.5885 30.4218 48.0635C30.7577 48.5384 30.938 49.1058 30.938 49.6875C30.938 50.2692 30.7577 50.8366 30.4218 51.3115C30.0859 51.7865 29.611 52.1455 29.0625 52.3393Z" fill="white"/>
</svg>
