<svg width="24" height="24" viewBox="0 0 24 24" fill="none" xmlns="http://www.w3.org/2000/svg">
<path d="M8.43739 14.2973C8.82301 13.9888 9.38457 14.0489 9.69634 14.4304C9.69815 14.4325 9.70294 14.438 9.71071 14.4465C9.72762 14.465 9.7583 14.4972 9.80266 14.5388C9.89173 14.6223 10.0334 14.7411 10.2266 14.8619C10.6096 15.1012 11.1965 15.3501 11.9996 15.3501C12.8027 15.3501 13.3897 15.1012 13.7726 14.8619C13.9659 14.7411 14.1075 14.6223 14.1966 14.5388C14.2409 14.4972 14.2716 14.465 14.2885 14.4465L14.3004 14.4332L14.3029 14.4304C14.6147 14.0489 15.1762 13.9888 15.5618 14.2973C15.95 14.6078 16.0129 15.1742 15.7024 15.5623L14.9996 15.0001C15.7024 15.5623 15.7027 15.562 15.7024 15.5623L15.7013 15.5637L15.7001 15.5652L15.6973 15.5686L15.6906 15.5768L15.6725 15.5983C15.6583 15.615 15.6398 15.6361 15.617 15.6611C15.5714 15.711 15.5083 15.7764 15.4277 15.852C15.2667 16.0029 15.0334 16.1966 14.7266 16.3883C14.1096 16.774 13.1965 17.1501 11.9996 17.1501C10.8027 17.1501 9.88966 16.774 9.27261 16.3883C8.96587 16.1966 8.73249 16.0029 8.57157 15.852C8.49092 15.7764 8.42786 15.711 8.38226 15.6611C8.35944 15.6361 8.34093 15.615 8.32671 15.5983L8.30858 15.5768L8.30191 15.5686L8.29917 15.5652L8.29795 15.5637C8.29768 15.5634 8.29683 15.5623 8.99961 15.0001L8.29683 15.5623C7.98632 15.1742 8.04925 14.6078 8.43739 14.2973Z" fill="#81CD23"/>
<path d="M10.2496 10.2501C10.2496 10.9404 9.68996 11.5001 8.9996 11.5001C8.30925 11.5001 7.7496 10.9404 7.7496 10.2501C7.7496 9.55974 8.30925 9.00009 8.9996 9.00009C9.68996 9.00009 10.2496 9.55974 10.2496 10.2501Z" fill="#81CD23"/>
<path d="M14.9996 11.5001C15.69 11.5001 16.2496 10.9404 16.2496 10.2501C16.2496 9.55974 15.69 9.00009 14.9996 9.00009C14.3092 9.00009 13.7496 9.55974 13.7496 10.2501C13.7496 10.9404 14.3092 11.5001 14.9996 11.5001Z" fill="#81CD23"/>
<path fill-rule="evenodd" clip-rule="evenodd" d="M11.9996 2.1001C6.53199 2.1001 2.09961 6.53248 2.09961 12.0001C2.09961 17.4677 6.53199 21.9001 11.9996 21.9001C17.4672 21.9001 21.8996 17.4677 21.8996 12.0001C21.8996 6.53248 17.4672 2.1001 11.9996 2.1001ZM3.89961 12.0001C3.89961 7.52659 7.5261 3.9001 11.9996 3.9001C16.4731 3.9001 20.0996 7.52659 20.0996 12.0001C20.0996 16.4736 16.4731 20.1001 11.9996 20.1001C7.5261 20.1001 3.89961 16.4736 3.89961 12.0001Z" fill="#81CD23"/>
</svg>
