<svg width="16" height="16" viewBox="0 0 16 16" fill="none" xmlns="http://www.w3.org/2000/svg">
<path d="M8.31209 2.83949C8.09578 3.05275 8.07549 3.38973 8.25281 3.62617L8.30607 3.68799L11.9667 7.40008L2.6 7.40008C2.26863 7.40008 2 7.66871 2 8.00008C2 8.30596 2.22889 8.55838 2.52474 8.59541L2.6 8.60008H11.9667L8.30607 12.3122C8.09281 12.5285 8.0773 12.8657 8.25796 13.0996L8.31209 13.1607C8.5284 13.3739 8.86563 13.3894 9.09953 13.2088L9.1606 13.1547L13.8273 8.42133C14.0384 8.20719 14.056 7.87401 13.88 7.64003L13.8273 7.57884L9.1606 2.8455C8.92795 2.60953 8.54806 2.60684 8.31209 2.83949Z" fill="#C3CFE2"/>
</svg>
