<svg width="24" height="24" viewBox="0 0 24 24" fill="none" xmlns="http://www.w3.org/2000/svg">
<path d="M18.3001 5.7C17.9135 5.3134 17.2867 5.3134 16.9001 5.7L12.0001 10.6L7.10011 5.7C6.71351 5.3134 6.08671 5.3134 5.70011 5.7C5.31351 6.0866 5.31351 6.7134 5.70011 7.1L10.6001 12L5.70011 16.9C5.31351 17.2866 5.31351 17.9134 5.70011 18.3C6.08671 18.6866 6.71351 18.6866 7.10011 18.3L12.0001 13.4L16.9001 18.3C17.2867 18.6866 17.9135 18.6866 18.3001 18.3C18.6867 17.9134 18.6867 17.2866 18.3001 16.9L13.4001 12L18.3001 7.1C18.6867 6.7134 18.6867 6.0866 18.3001 5.7Z" fill="#808DA8"/>
</svg>
