<svg width="24" height="24" viewBox="0 0 24 24" fill="none" xmlns="http://www.w3.org/2000/svg">
<path d="M19 19C19.5523 19 20 19.4477 20 20C20 20.5523 19.5523 21 19 21H5C4.44772 21 4 20.5523 4 20C4 19.4477 4.44772 19 5 19H19ZM12 2C12.5523 2 13 2.44772 13 3V13.585L17.2929 9.29289C17.6534 8.93241 18.2206 8.90468 18.6129 9.2097L18.7071 9.29289C19.0976 9.68342 19.0976 10.3166 18.7071 10.7071L12.7071 16.7071C12.6786 16.7356 12.6485 16.7623 12.6167 16.7872C12.6098 16.7927 12.6026 16.7982 12.5953 16.8037C12.5711 16.8215 12.5463 16.8383 12.5207 16.8539C12.5086 16.8614 12.4964 16.8685 12.4841 16.8753C12.4643 16.8862 12.4439 16.8966 12.4231 16.9063C12.4061 16.9143 12.3888 16.9218 12.3713 16.9288C12.3516 16.9367 12.3318 16.9439 12.3117 16.9505C12.2969 16.9553 12.2815 16.9599 12.266 16.9642C12.2444 16.9702 12.2227 16.9754 12.2008 16.9798C12.1834 16.9833 12.1659 16.9864 12.1485 16.989C12.1281 16.9921 12.1071 16.9946 12.0858 16.9964C12.0679 16.9979 12.0506 16.9989 12.0332 16.9995C12.0224 16.9998 12.0112 17 12 17L11.9677 16.9995C11.9497 16.9989 11.9317 16.9978 11.9138 16.9963L12 17C11.9494 17 11.8996 16.9962 11.851 16.989C11.8341 16.9864 11.8166 16.9833 11.7993 16.9798C11.7773 16.9754 11.7556 16.9702 11.7342 16.9643C11.7185 16.9599 11.7031 16.9553 11.6879 16.9503C11.6682 16.9439 11.6484 16.9367 11.6289 16.9289C11.6112 16.9218 11.5939 16.9143 11.5768 16.9063C11.5561 16.8966 11.5357 16.8862 11.5157 16.8751C11.5036 16.8685 11.4914 16.8614 11.4793 16.854C11.4537 16.8383 11.4289 16.8215 11.4048 16.8037C11.3657 16.7747 11.3283 16.7425 11.2929 16.7071L11.3833 16.7872C11.3515 16.7623 11.3214 16.7356 11.2929 16.7071L5.29289 10.7071C4.90237 10.3166 4.90237 9.68342 5.29289 9.29289C5.68342 8.90237 6.31658 8.90237 6.70711 9.29289L11 13.585V3C11 2.44772 11.4477 2 12 2Z" fill="white"/>
</svg>
