<svg width="121" height="120" viewBox="0 0 121 120" fill="none" xmlns="http://www.w3.org/2000/svg">
<g clip-path="url(#clip0)">
<path d="M38.9747 73.0042C50.182 81.0566 59.3802 90.1292 61.6405 104.397C69.2675 96.3044 75.3292 86.8685 79.5188 76.5674C83.5855 66.4092 86.4972 55.8261 88.199 45.0173C89.4704 67.6831 84.0551 88.1514 68.4528 105.308C68.7007 105.286 68.9471 105.25 69.1905 105.198C84.887 101.776 95.5921 92.1697 101.18 77.5091C110.049 54.137 107.459 31.5183 94.7601 10.014C92.537 6.42961 89.7913 3.19713 86.6136 0.423462C86.3311 7.39272 83.1918 12.965 79.77 18.3489C75.3435 25.3025 70.6346 32.1148 66.2239 39.1311C60.9498 47.6229 56.4135 56.3973 54.734 66.4902C54.3887 68.5307 54.1689 70.6027 53.855 72.9571C48.562 67.6045 42.1814 63.4507 35.1447 60.7766C28.2072 57.8953 20.7598 56.4432 13.248 56.5072C17.0937 59.6465 18.4593 63.6805 19.8406 67.7145C21.7242 73.224 23.1997 78.8747 25.5698 84.1959C29.5097 93.0487 35.6156 99.6884 44.8295 103.204C48.6026 104.566 52.5219 105.483 56.5077 105.936C57.8419 106.108 58.25 106.014 58.0774 104.507C57.1646 98.5966 54.7607 93.0162 51.0924 88.2927C47.6536 83.6644 43.9537 79.236 40.0106 75.0291C39.6799 74.8076 39.4112 74.5054 39.2299 74.1511C39.0486 73.7968 38.9608 73.402 38.9747 73.0042Z" fill="#81CD23"/>
<path d="M108.855 25.7422C109.248 26.9195 109.625 27.9397 109.907 28.9914C113.005 39.8005 113.902 51.1217 112.544 62.2838C111.591 71.4786 108.593 80.3438 103.77 88.2301C89.015 111.226 58.4539 118.54 34.187 104.853C9.55918 91.0398 0.816208 58.3596 15.2256 34.0771C20.8777 24.3322 29.5483 16.692 39.927 12.3112C50.3056 7.93034 61.8283 7.04696 72.7534 9.79455C76.4107 10.6579 76.5049 10.6892 77.6821 7.20462C79.2518 2.49566 79.7855 2.85668 74.7626 1.69513C61.0723 -1.63258 46.6521 -0.118462 33.9516 5.98029C20.085 13.1344 9.5483 25.4059 4.57363 40.195C-0.401045 54.984 0.577151 71.1288 7.30098 85.2091C14.0248 99.2893 25.9661 110.199 40.5949 115.627C55.2238 121.054 71.3911 120.574 85.6717 114.286C118.807 99.1078 130.642 57.1196 110.347 26.9979C110.033 26.5114 109.876 25.805 108.855 25.7422Z" fill="#81CD23"/>
</g>
<defs>
<clipPath id="clip0">
<rect width="120.345" height="120" fill="white"/>
</clipPath>
</defs>
</svg>
