<svg width="120" height="48" viewBox="0 0 120 48" fill="none" xmlns="http://www.w3.org/2000/svg">
<rect opacity="0.2" x="1" y="1" width="118" height="46" rx="3" stroke="white" stroke-width="2"/>
<path d="M43.12 11.662H45.178C46.0367 11.662 46.718 11.83 47.222 12.166C47.5953 12.418 47.88 12.7493 48.076 13.16C48.2813 13.5613 48.384 13.986 48.384 14.434C48.384 15.274 48.0807 15.9553 47.474 16.478C46.9047 16.9633 46.144 17.206 45.192 17.206H44.548V21H43.12V11.662ZM44.548 12.978V15.89H45.192C45.7893 15.89 46.242 15.7593 46.55 15.498C46.858 15.2273 47.012 14.868 47.012 14.42C47.012 14.2613 46.9887 14.112 46.942 13.972C46.9047 13.832 46.8253 13.6827 46.704 13.524C46.592 13.356 46.4053 13.2253 46.144 13.132C45.8827 13.0293 45.5607 12.978 45.178 12.978H44.548ZM49.5946 10.794H50.9666V21H49.5946V10.794ZM57.0101 15.792V15.106H58.3821V21H57.0101V20.384C56.5527 20.916 55.9647 21.182 55.2461 21.182C54.3781 21.182 53.6827 20.874 53.1601 20.258C52.6467 19.642 52.3901 18.9047 52.3901 18.046C52.3901 17.1127 52.6654 16.366 53.2161 15.806C53.7761 15.2367 54.4574 14.952 55.2601 14.952C55.9974 14.952 56.5807 15.232 57.0101 15.792ZM55.4281 16.184C54.9427 16.184 54.5461 16.366 54.2381 16.73C53.9394 17.094 53.7901 17.542 53.7901 18.074C53.7901 18.5967 53.9394 19.04 54.2381 19.404C54.5461 19.768 54.9427 19.95 55.4281 19.95C55.8947 19.95 56.2867 19.7867 56.6041 19.46C56.9307 19.1333 57.0941 18.676 57.0941 18.088C57.0941 17.4813 56.9307 17.0147 56.6041 16.688C56.2867 16.352 55.8947 16.184 55.4281 16.184ZM59.6879 24.206L61.8579 20.076L59.3379 15.106H60.9899L62.6699 18.55L64.3779 15.106H65.9179L61.2279 24.206H59.6879ZM68.3038 21H66.8478L68.8078 10.962L72.0558 18.214L75.3318 10.962L77.0958 21H75.6398L74.6878 15.372L71.9718 21.434L69.2838 15.358L68.3038 21ZM83.1097 15.792V15.106H84.4817V21H83.1097V20.384C82.6524 20.916 82.0644 21.182 81.3457 21.182C80.4777 21.182 79.7824 20.874 79.2597 20.258C78.7464 19.642 78.4897 18.9047 78.4897 18.046C78.4897 17.1127 78.765 16.366 79.3157 15.806C79.8757 15.2367 80.557 14.952 81.3597 14.952C82.097 14.952 82.6804 15.232 83.1097 15.792ZM81.5277 16.184C81.0424 16.184 80.6457 16.366 80.3377 16.73C80.039 17.094 79.8897 17.542 79.8897 18.074C79.8897 18.5967 80.039 19.04 80.3377 19.404C80.6457 19.768 81.0424 19.95 81.5277 19.95C81.9944 19.95 82.3864 19.7867 82.7037 19.46C83.0304 19.1333 83.1937 18.676 83.1937 18.088C83.1937 17.4813 83.0304 17.0147 82.7037 16.688C82.3864 16.352 81.9944 16.184 81.5277 16.184ZM86.2215 21V15.106H87.5935V15.638C87.7708 15.4327 87.9622 15.2693 88.1675 15.148C88.3915 15.0173 88.6715 14.952 89.0075 14.952C89.4088 14.952 89.7682 15.0453 90.0855 15.232L89.5255 16.478C89.3015 16.338 89.0682 16.268 88.8255 16.268C88.4615 16.268 88.1768 16.3753 87.9715 16.59C87.7195 16.8607 87.5935 17.3133 87.5935 17.948V21H86.2215ZM90.87 10.794H92.242V17.08L94.16 15.106H95.98L93.446 17.556L96.162 21H94.426L92.494 18.48L92.242 18.732V21H90.87V10.794ZM101.043 19.012L102.191 19.656C101.93 20.1227 101.598 20.482 101.197 20.734C100.74 21.0327 100.161 21.182 99.4609 21.182C98.6396 21.182 97.9769 20.93 97.4729 20.426C96.8943 19.8473 96.6049 19.096 96.6049 18.172C96.6049 17.2013 96.9176 16.394 97.5429 15.75C98.0749 15.218 98.7329 14.952 99.5169 14.952C100.282 14.952 100.912 15.2087 101.407 15.722C101.958 16.2913 102.233 17.122 102.233 18.214V18.382H98.0049C98.0423 18.8767 98.2103 19.2733 98.5089 19.572C98.7609 19.824 99.1109 19.95 99.5589 19.95C99.9229 19.95 100.236 19.852 100.497 19.656C100.712 19.488 100.894 19.2733 101.043 19.012ZM98.1029 17.262H100.833C100.777 16.9353 100.637 16.6693 100.413 16.464C100.17 16.24 99.8623 16.128 99.4889 16.128C99.0969 16.128 98.7749 16.254 98.5229 16.506C98.3176 16.6927 98.1776 16.9447 98.1029 17.262ZM106.131 16.366H105.081V21H103.709V16.366H103.135V15.106H103.709V12.95H105.081V15.106H106.131V16.366Z" fill="white"/>
<path d="M50.036 28.166V29.846C49.2707 29.1553 48.426 28.81 47.502 28.81C46.494 28.81 45.6727 29.146 45.038 29.818C44.4127 30.4807 44.1 31.33 44.1 32.366C44.1 33.3647 44.422 34.2 45.066 34.872C45.71 35.5347 46.5267 35.866 47.516 35.866C48.44 35.866 49.28 35.5067 50.036 34.788V36.482C49.252 36.9487 48.398 37.182 47.474 37.182C46.1767 37.182 45.0753 36.7527 44.17 35.894C43.1713 34.9607 42.672 33.7847 42.672 32.366C42.672 30.8727 43.1713 29.6547 44.17 28.712C45.0287 27.9 46.1533 27.494 47.544 27.494C48.5053 27.494 49.336 27.718 50.036 28.166ZM51.5496 31.106H52.9216V33.206L54.8816 31.106H56.7016L54.1256 33.682L56.8416 37H55.1056L53.1456 34.578L52.9216 34.802V37H51.5496V31.106ZM62.055 31.792V31.106H63.427V37H62.055V36.384C61.5977 36.916 61.0097 37.182 60.291 37.182C59.423 37.182 58.7277 36.874 58.205 36.258C57.6917 35.642 57.435 34.9047 57.435 34.046C57.435 33.1127 57.7103 32.366 58.261 31.806C58.821 31.2367 59.5023 30.952 60.305 30.952C61.0423 30.952 61.6257 31.232 62.055 31.792ZM60.473 32.184C59.9877 32.184 59.591 32.366 59.283 32.73C58.9843 33.094 58.835 33.542 58.835 34.074C58.835 34.5967 58.9843 35.04 59.283 35.404C59.591 35.768 59.9877 35.95 60.473 35.95C60.9397 35.95 61.3317 35.7867 61.649 35.46C61.9757 35.1333 62.139 34.676 62.139 34.088C62.139 33.4813 61.9757 33.0147 61.649 32.688C61.3317 32.352 60.9397 32.184 60.473 32.184ZM68.3588 37V34.718C67.9388 34.802 67.5375 34.844 67.1548 34.844C66.4828 34.844 65.9648 34.6993 65.6008 34.41C65.2182 34.102 65.0268 33.6307 65.0268 32.996V31.106H66.3988V32.716C66.3988 33.1173 66.5155 33.388 66.7488 33.528C66.9075 33.6213 67.1362 33.668 67.4348 33.668C67.7708 33.668 68.0788 33.6167 68.3588 33.514V31.106H69.7308V37H68.3588ZM75.7816 31.792V31.106H77.1536V37H75.7816V36.384C75.3242 36.916 74.7362 37.182 74.0176 37.182C73.1496 37.182 72.4542 36.874 71.9316 36.258C71.4182 35.642 71.1616 34.9047 71.1616 34.046C71.1616 33.1127 71.4369 32.366 71.9876 31.806C72.5476 31.2367 73.2289 30.952 74.0316 30.952C74.7689 30.952 75.3522 31.232 75.7816 31.792ZM74.1996 32.184C73.7142 32.184 73.3176 32.366 73.0096 32.73C72.7109 33.094 72.5616 33.542 72.5616 34.074C72.5616 34.5967 72.7109 35.04 73.0096 35.404C73.3176 35.768 73.7142 35.95 74.1996 35.95C74.6662 35.95 75.0582 35.7867 75.3756 35.46C75.7022 35.1333 75.8656 34.676 75.8656 34.088C75.8656 33.4813 75.7022 33.0147 75.3756 32.688C75.0582 32.352 74.6662 32.184 74.1996 32.184ZM82.9534 32.366H81.2314V37H79.8594V32.366H78.1374V31.106H82.9534V32.366ZM83.9383 37V31.106H85.3103V33.192H86.0943C86.3463 33.192 86.5516 33.2013 86.7103 33.22C86.869 33.2293 87.0603 33.2807 87.2843 33.374C87.5083 33.4673 87.7043 33.6073 87.8723 33.794C88.1803 34.1393 88.3343 34.5687 88.3343 35.082C88.3343 35.67 88.157 36.1413 87.8023 36.496C87.6436 36.6547 87.4523 36.776 87.2283 36.86C87.0136 36.9347 86.8316 36.9767 86.6823 36.986C86.5423 36.9953 86.3416 37 86.0803 37H83.9383ZM85.3103 35.824H85.9403C86.2763 35.824 86.5143 35.782 86.6543 35.698C86.8596 35.5487 86.9623 35.348 86.9623 35.096C86.9623 34.8347 86.8643 34.6387 86.6683 34.508C86.519 34.4147 86.281 34.368 85.9543 34.368H85.3103V35.824Z" fill="white"/>
<g clip-path="url(#clip0)">
<path d="M15.238 11.3839C14.2991 10.8649 13.1966 10.8769 12.2637 11.3914L23.1981 21.4783L26.8713 17.805L15.238 11.3839Z" fill="white"/>
<path d="M11.171 12.4233C10.904 12.8598 10.751 13.3592 10.751 13.8887V32.1067C10.751 32.6196 10.8905 33.1086 11.1425 33.5361L22.1383 22.5402L11.171 12.4233Z" fill="white"/>
<path d="M31.7419 20.4927L28.2381 18.5593L24.3008 22.4951L29.126 26.9454L31.7434 25.5009C32.6853 24.979 33.2493 24.043 33.2493 22.9961C33.2478 21.9491 32.6853 21.0132 31.7419 20.4927Z" fill="white"/>
<path d="M23.2407 23.5573L12.2148 34.5831C12.6933 34.8561 13.2183 35.0001 13.7463 35.0001C14.2562 35.0001 14.7692 34.8711 15.2387 34.6116L27.7435 27.7105L23.2407 23.5573Z" fill="white"/>
</g>
<defs>
<clipPath id="clip0">
<rect width="24" height="24" fill="white" transform="translate(10 11)"/>
</clipPath>
</defs>
</svg>
